# xmcd
#
# Track frame offsets: 
#        150
#        35080
#        54084
#        61861
#        80694
#        86033
#        104590
#        112681
#        135012
#        170078
#        190474
#        209324
#        227267
#        257184
#        272084
#        283264
#        301914
#        327287
#
# Disc length: 4566 seconds
#
# Revision: 6
# Processed by: cddbd v1.5.2PL0 Copyright (c) Steve Scherf et al.
# Submitted via: ExactAudioCopy v1.0b3
#
DISCID=f911d412
DTITLE=Gil Shaham (violin), Hollywood Bowl Orchestra and John Mauceri - 
DTITLE=Star Wars‧The Sound of Hollywood
DYEAR=1992
DGENRE=Soundtrack
TTITLE0=John Williams‧Throne Room ＆ Finale（Star Wars）
TTITLE1=John Williams‧The Flying Theme（E.T.）
TTITLE2=Bernard Herrmann‧Outer Space（The Day The Earth Stood Still）
TTITLE3=Jerry Goldsmith‧Main Theme ＆ March of the Klingons（Star Trek V
TTITLE3=：The Final Frontier）
TTITLE4=Louis Barron, Bebe Barron‧Once Around Altair（Forbidden Planet）
TTITLE5=John Corigliano‧Love Theme（Altered States）
TTITLE6=Alex North‧Fanfare（2001：A Space Odyssey）
TTITLE7=John Williams‧The Devil's Dance（The Witches of Eastwick）
TTITLE8=Ennio Morricone‧Cinema Paradiso
TTITLE9=Max Steiner‧Now, Voyager
TTITLE10=Max Steiner‧Overture（King Kong）
TTITLE11=Erich Korngold‧Battle, Victory ＆ Epilogue（The Adventures of R
TTITLE11=obin Hood）
TTITLE12=Richard Rodgers‧Entr'acte（The Sound of Music）
TTITLE13=John Williams‧Main Title（Jurassic Park）
TTITLE14=John Barry‧John Dunbar Theme（Dances with Wolves）
TTITLE15=John Barry‧Main Title（Body Heat）
TTITLE16=John Williams‧Night Journeys（Dracula）
TTITLE17=Jerry Goldsmith‧Main Title（The Omen）
EXTD=
EXTT0=
EXTT1=
EXTT2=
EXTT3=
EXTT4=
EXTT5=
EXTT6=
EXTT7=
EXTT8=
EXTT9=
EXTT10=
EXTT11=
EXTT12=
EXTT13=
EXTT14=
EXTT15=
EXTT16=
EXTT17=
PLAYORDER=
